<svg width="20" height="20" viewBox="0 0 20 20" fill="none" xmlns="http://www.w3.org/2000/svg">
<path d="M18.5964 5.35589H14.8517C14.7472 5.35589 14.6628 5.27156 14.6628 5.16708C14.6628 5.06261 14.7472 4.97827 14.8517 4.97827H18.5964C18.7009 4.97827 18.7852 5.06261 18.7852 5.16708C18.7852 5.27156 18.7009 5.35589 18.5964 5.35589Z" fill="#231E1C" fill-opacity="0.4"/>
<path d="M18.5964 9.62301H15.2293C15.1249 9.62301 15.0405 9.53868 15.0405 9.4342C15.0405 9.32973 15.1249 9.24539 15.2293 9.24539H18.5964C18.7009 9.24539 18.7853 9.32973 18.7853 9.4342C18.7853 9.53868 18.7009 9.62301 18.5964 9.62301Z" fill="#231E1C" fill-opacity="0.4"/>
<path d="M18.5964 13.8914H17.3729C17.2684 13.8914 17.1841 13.807 17.1841 13.7026C17.1841 13.5981 17.2684 13.5138 17.3729 13.5138H18.5964C18.7009 13.5138 18.7852 13.5981 18.7852 13.7026C18.7852 13.807 18.7009 13.8914 18.5964 13.8914Z" fill="#231E1C" fill-opacity="0.4"/>
<path d="M18.5965 18.1585H8.81991C8.71544 18.1585 8.6311 18.0741 8.6311 17.9697C8.6311 17.8652 8.71544 17.7809 8.81991 17.7809H18.5965C18.701 17.7809 18.7853 17.8652 18.7853 17.9697C18.7853 18.0741 18.701 18.1585 18.5965 18.1585Z" fill="#231E1C" fill-opacity="0.4"/>
<path d="M6.89151 5.69828C7.95653 5.69828 8.81989 4.83491 8.81989 3.7699C8.81989 2.70489 7.95653 1.84152 6.89151 1.84152C5.8265 1.84152 4.96313 2.70489 4.96313 3.7699C4.96313 4.83491 5.8265 5.69828 6.89151 5.69828Z" fill="#001D4A"/>
<path d="M10.5231 13.0619L14.7889 15.5252C15.3553 15.8525 16.0804 15.6586 16.4076 15.0909C16.7349 14.5245 16.5411 13.7995 15.9734 13.4722L11.6949 11.0026L10.912 8.08231L12.1003 7.76386L12.3193 8.58203C12.4892 9.21392 13.1387 9.58902 13.7706 9.42035C14.4025 9.25042 14.7776 8.60091 14.6089 7.96903L14.0828 6.00541C13.9128 5.37352 13.2633 4.99842 12.6314 5.16709L3.76242 7.54358L3.54339 6.7254C3.37347 6.09352 2.72396 5.71842 2.09208 5.88709C1.4602 6.05701 1.08509 6.70652 1.25376 7.3384L1.77992 9.30203C1.94985 9.93391 2.59935 10.309 3.23123 10.1403L5.56367 9.51475L6.42716 12.7346L5.43905 14.4414C5.11052 15.0079 5.30436 15.7342 5.87205 16.0614L8.07106 17.3315C8.63749 17.6588 9.36252 17.4649 9.68979 16.8972C10.0171 16.3308 9.82321 15.6058 9.25552 15.2785L8.0849 14.6026L8.69161 13.5515L10.5205 13.0619H10.5231Z" fill="#001D4A"/>
</svg>
