<svg width="20" height="20" viewBox="0 0 20 20" fill="none" xmlns="http://www.w3.org/2000/svg">
<g clip-path="url(#clip0_28_36925)">
<path d="M19.151 8.46697C19.151 7.77274 20.1444 6.98262 19.9821 6.38556C19.8044 5.73352 18.5437 5.58649 18.1934 5.05208C17.838 4.50743 18.2113 3.30052 17.7025 2.87734C17.1936 2.45415 16.0698 3.03715 15.4651 2.74181C14.8974 2.46566 14.6699 1.214 14.0191 1.03501C13.4093 0.867524 12.5552 1.82001 11.8878 1.73819C11.2563 1.66403 10.6694 0.529999 9.99949 0.529999C9.32955 0.529999 8.74399 1.66403 8.11241 1.74074C7.44503 1.82257 6.59099 0.870081 5.98114 1.03757C5.33038 1.21656 5.10281 2.46821 4.53515 2.74437C3.93042 3.03971 2.78487 2.47333 2.29776 2.87989C1.78892 3.30308 2.16224 4.50999 1.80682 5.05463C1.45139 5.59928 0.197176 5.7348 0.0181856 6.38684C-0.145463 6.98262 0.849215 7.77402 0.849215 8.46825C0.849215 9.20083 -0.139071 10.0766 0.0424772 10.8143C0.217633 11.5277 1.50253 11.8691 1.82599 12.5518C2.14946 13.2345 1.58691 14.4274 2.028 15.0321C2.46908 15.6368 3.78339 15.4719 4.32931 15.9769C4.87523 16.4819 4.82665 17.8167 5.4659 18.1926C6.10515 18.5684 7.22896 17.8729 7.94493 18.0801C8.66089 18.2872 9.24133 19.4736 10.0008 19.4736C10.7602 19.4736 11.347 18.2846 12.0566 18.0801C12.7662 17.8755 13.89 18.5723 14.5356 18.1926C15.1813 17.8128 15.1212 16.4883 15.6722 15.9769C16.2181 15.4719 17.5324 15.6356 17.9735 15.0321C18.4146 14.4286 17.8585 13.2217 18.1755 12.5518C18.4926 11.8819 19.7839 11.5277 19.9591 10.8143C20.1393 10.0753 19.1523 9.19955 19.1523 8.46825L19.151 8.46697Z" fill="url(#paint0_linear_28_36925)"/>
<path d="M19.151 8.46697C19.151 7.77274 20.1444 6.98262 19.9821 6.38556C19.8044 5.73352 18.5437 5.58649 18.1934 5.05208C17.838 4.50743 18.2113 3.30052 17.7025 2.87734C17.1936 2.45415 16.0698 3.03715 15.4651 2.74181C14.8974 2.46566 14.6699 1.214 14.0191 1.03501C13.4093 0.867524 12.5552 1.82001 11.8878 1.73819C11.2563 1.66403 10.6694 0.529999 9.99949 0.529999C9.32955 0.529999 8.74399 1.66403 8.11241 1.74074C7.44503 1.82257 6.59099 0.870081 5.98114 1.03757C5.33038 1.21656 5.10281 2.46821 4.53515 2.74437C3.93042 3.03971 2.78487 2.47333 2.29776 2.87989C1.78892 3.30308 2.16224 4.50999 1.80682 5.05463C1.45139 5.59928 0.197176 5.7348 0.0181856 6.38684C-0.145463 6.98262 0.849215 7.77402 0.849215 8.46825C0.849215 9.20083 -0.139071 10.0766 0.0424772 10.8143C0.217633 11.5277 1.50253 11.8691 1.82599 12.5518C2.14946 13.2345 1.58691 14.4274 2.028 15.0321C2.46908 15.6368 3.78339 15.4719 4.32931 15.9769C4.87523 16.4819 4.82665 17.8167 5.4659 18.1926C6.10515 18.5684 7.22896 17.8729 7.94493 18.0801C8.66089 18.2872 9.24133 19.4736 10.0008 19.4736C10.7602 19.4736 11.347 18.2846 12.0566 18.0801C12.7662 17.8755 13.89 18.5723 14.5356 18.1926C15.1813 17.8128 15.1212 16.4883 15.6722 15.9769C16.2181 15.4719 17.5324 15.6356 17.9735 15.0321C18.4146 14.4286 17.8585 13.2217 18.1755 12.5518C18.4926 11.8819 19.7839 11.5277 19.9591 10.8143C20.1393 10.0753 19.1523 9.19955 19.1523 8.46825L19.151 8.46697Z" fill="url(#paint1_linear_28_36925)"/>
<path d="M4.89449 8.84925C5.99742 8.84925 6.89152 7.95515 6.89152 6.85222C6.89152 5.74929 5.99742 4.85519 4.89449 4.85519C3.79156 4.85519 2.89746 5.74929 2.89746 6.85222C2.89746 7.95515 3.79156 8.84925 4.89449 8.84925Z" fill="url(#paint2_linear_28_36925)"/>
<path d="M15.1062 8.84925C16.2091 8.84925 17.1032 7.95515 17.1032 6.85222C17.1032 5.74929 16.2091 4.85519 15.1062 4.85519C14.0032 4.85519 13.1091 5.74929 13.1091 6.85222C13.1091 7.95515 14.0032 8.84925 15.1062 8.84925Z" fill="url(#paint3_linear_28_36925)"/>
<path d="M5.19769 8.30972C5.83812 8.30972 6.3573 7.79055 6.3573 7.15011C6.3573 6.50968 5.83812 5.99051 5.19769 5.99051C4.55726 5.99051 4.03809 6.50968 4.03809 7.15011C4.03809 7.79055 4.55726 8.30972 5.19769 8.30972Z" fill="#FEDDB3"/>
<path d="M14.8032 8.30972C15.4436 8.30972 15.9628 7.79055 15.9628 7.15011C15.9628 6.50968 15.4436 5.99051 14.8032 5.99051C14.1627 5.99051 13.6436 6.50968 13.6436 7.15011C13.6436 7.79055 14.1627 8.30972 14.8032 8.30972Z" fill="#FEDDB3"/>
<path d="M15.8871 11.7195C15.8871 14.7099 13.2508 16.2032 9.99958 16.2032C6.74834 16.2032 4.11206 14.7099 4.11206 11.7195C4.11206 8.72903 6.74834 5.37296 9.99958 5.37296C13.2508 5.37296 15.8871 8.72903 15.8871 11.7195Z" fill="url(#paint4_linear_28_36925)"/>
<path d="M12.3202 11.9266C12.3202 10.7478 11.282 10.1597 9.99969 10.1597C8.71735 10.1597 7.6792 10.7478 7.6792 11.9266C7.6792 13.1054 8.71735 13.8009 9.99969 13.8009C11.282 13.8009 12.3202 13.1054 12.3202 11.9266Z" fill="#FFF8EF"/>
<path d="M6.62316 11.2362C6.93173 11.2362 7.18187 10.9861 7.18187 10.6775C7.18187 10.3689 6.93173 10.1188 6.62316 10.1188C6.31459 10.1188 6.06445 10.3689 6.06445 10.6775C6.06445 10.9861 6.31459 11.2362 6.62316 11.2362Z" fill="#693C11"/>
<path d="M13.3773 11.2362C13.6859 11.2362 13.936 10.9861 13.936 10.6775C13.936 10.3689 13.6859 10.1188 13.3773 10.1188C13.0687 10.1188 12.8186 10.3689 12.8186 10.6775C12.8186 10.9861 13.0687 11.2362 13.3773 11.2362Z" fill="#693C11"/>
<path d="M5.83807 12.7921C6.35917 12.7921 6.78161 12.5969 6.78161 12.3562C6.78161 12.1154 6.35917 11.9202 5.83807 11.9202C5.31697 11.9202 4.89453 12.1154 4.89453 12.3562C4.89453 12.5969 5.31697 12.7921 5.83807 12.7921Z" fill="#EB5D1C"/>
<path d="M14.1625 12.7921C14.6836 12.7921 15.1061 12.5969 15.1061 12.3562C15.1061 12.1154 14.6836 11.9202 14.1625 11.9202C13.6414 11.9202 13.219 12.1154 13.219 12.3562C13.219 12.5969 13.6414 12.7921 14.1625 12.7921Z" fill="#EB5D1C"/>
<path d="M9.99964 12.4853C9.89352 12.4853 9.80786 12.3996 9.80786 12.2935V11.2119C9.80786 11.1058 9.89352 11.0201 9.99964 11.0201C10.1058 11.0201 10.1914 11.1058 10.1914 11.2119V12.2935C10.1914 12.3996 10.1058 12.4853 9.99964 12.4853Z" fill="#693C11"/>
<path d="M9.97034 12.5876C9.05877 12.5876 8.2239 11.9291 7.98482 11.0125C7.95797 10.9102 8.01934 10.8053 8.12162 10.7785C8.2239 10.7516 8.32874 10.813 8.35559 10.9153C8.55376 11.6722 9.24287 12.2181 9.99719 12.204C10.0049 12.204 10.0125 12.204 10.0189 12.204C10.7694 12.204 11.4483 11.6658 11.6439 10.9153C11.6708 10.813 11.7756 10.7516 11.8779 10.7785C11.9802 10.8053 12.0415 10.9102 12.0147 11.0125C11.773 11.9381 10.9203 12.5965 9.99719 12.5876C9.98824 12.5876 9.97929 12.5876 9.97034 12.5876Z" fill="#693C11"/>
<path d="M7.27507 9.25709C7.18941 9.25709 7.1127 9.19956 7.08968 9.1139C7.04621 8.94513 6.89407 8.82368 6.72787 8.82368C6.72403 8.82368 6.72147 8.82368 6.71764 8.82368C6.54632 8.82368 6.39545 8.94513 6.35071 9.1139C6.32386 9.21618 6.21902 9.27755 6.11674 9.2507C6.01446 9.22385 5.95309 9.11901 5.97994 9.01673C6.06943 8.67537 6.36861 8.44012 6.71124 8.44012H6.7317C7.06923 8.44012 7.36968 8.67665 7.45789 9.01673C7.48474 9.11901 7.42337 9.22385 7.32109 9.2507C7.30447 9.25453 7.28913 9.25709 7.27251 9.25709H7.27507Z" fill="#693C11"/>
<path d="M13.8338 9.25709C13.7482 9.25709 13.6715 9.19956 13.6485 9.1139C13.6037 8.94386 13.4439 8.81984 13.2828 8.82368C13.1115 8.81728 12.9555 8.94386 12.9108 9.1139C12.8839 9.21618 12.7791 9.27755 12.6768 9.2507C12.5745 9.22385 12.5131 9.11901 12.54 9.01673C12.6295 8.67537 12.9287 8.44012 13.2726 8.44012H13.293C13.6306 8.44012 13.931 8.67665 14.0192 9.01673C14.0461 9.11901 13.9847 9.22385 13.8824 9.2507C13.8658 9.25453 13.8505 9.25709 13.8338 9.25709Z" fill="#693C11"/>
<path d="M9.24023 10.3937C9.24023 10.0076 9.58032 9.8158 9.99967 9.8158C10.419 9.8158 10.7591 10.0089 10.7591 10.3937C10.7591 10.7785 10.419 11.2119 9.99967 11.2119C9.58032 11.2119 9.24023 10.7798 9.24023 10.3937Z" fill="url(#paint5_linear_28_36925)"/>
</g>
<defs>
<linearGradient id="paint0_linear_28_36925" x1="9.99948" y1="19.2473" x2="9.99948" y2="3.78252" gradientUnits="userSpaceOnUse">
<stop stop-color="#693C11"/>
<stop offset="1" stop-color="#936037"/>
</linearGradient>
<linearGradient id="paint1_linear_28_36925" x1="9.99948" y1="19.2473" x2="9.99948" y2="3.78252" gradientUnits="userSpaceOnUse">
<stop stop-color="#693C11"/>
<stop offset="1" stop-color="#936037"/>
</linearGradient>
<linearGradient id="paint2_linear_28_36925" x1="4.86764" y1="8.78788" x2="4.92262" y2="4.78615" gradientUnits="userSpaceOnUse">
<stop stop-color="#E69F40"/>
<stop offset="1" stop-color="#F9B046"/>
</linearGradient>
<linearGradient id="paint3_linear_28_36925" x1="15.078" y1="8.92596" x2="15.1317" y2="4.92423" gradientUnits="userSpaceOnUse">
<stop stop-color="#E69F40"/>
<stop offset="1" stop-color="#F9B046"/>
</linearGradient>
<linearGradient id="paint4_linear_28_36925" x1="9.99958" y1="15.679" x2="9.99958" y2="5.99687" gradientUnits="userSpaceOnUse">
<stop stop-color="#F9B046"/>
<stop offset="1" stop-color="#FABE6D"/>
</linearGradient>
<linearGradient id="paint5_linear_28_36925" x1="9.99967" y1="11.2183" x2="9.99967" y2="9.94748" gradientUnits="userSpaceOnUse">
<stop stop-color="#693C11"/>
<stop offset="1" stop-color="#936037"/>
</linearGradient>
<clipPath id="clip0_28_36925">
<rect width="20" height="20" fill="white"/>
</clipPath>
</defs>
</svg>
