<svg width="20" height="20" viewBox="0 0 20 20" fill="none" xmlns="http://www.w3.org/2000/svg">
<path d="M15.9544 3.12418H4.04549C3.17374 3.12418 2.46704 3.83087 2.46704 4.70263V16.9891C2.46704 17.8609 3.17374 18.5676 4.04549 18.5676H15.9544C16.8261 18.5676 17.5328 17.8609 17.5328 16.9891V4.70263C17.5328 3.83087 16.8261 3.12418 15.9544 3.12418Z" fill="#9D9DBA"/>
<path d="M15.9544 2.87244H4.04549C3.17374 2.87244 2.46704 3.57913 2.46704 4.45089V16.3598C2.46704 17.2315 3.17374 17.9382 4.04549 17.9382H15.9544C16.8261 17.9382 17.5328 17.2315 17.5328 16.3598V4.45089C17.5328 3.57913 16.8261 2.87244 15.9544 2.87244Z" fill="url(#paint0_linear_87_7945)"/>
<path d="M5.86435 2.44194C5.86435 2.09296 5.58145 1.81006 5.23247 1.81006C4.88349 1.81006 4.60059 2.09296 4.60059 2.44194V4.0569C4.60059 4.40588 4.88349 4.68878 5.23247 4.68878C5.58145 4.68878 5.86435 4.40588 5.86435 4.0569V2.44194Z" fill="#5F6A7F"/>
<path d="M9.07285 2.44194C9.07285 2.09296 8.78994 1.81006 8.44096 1.81006C8.09198 1.81006 7.80908 2.09296 7.80908 2.44194V4.0569C7.80908 4.40588 8.09198 4.68878 8.44096 4.68878C8.78994 4.68878 9.07285 4.40588 9.07285 4.0569V2.44194Z" fill="#5F6A7F"/>
<path d="M12.2813 2.44194C12.2813 2.09296 11.9984 1.81006 11.6495 1.81006C11.3005 1.81006 11.0176 2.09296 11.0176 2.44194V4.0569C11.0176 4.40588 11.3005 4.68878 11.6495 4.68878C11.9984 4.68878 12.2813 4.40588 12.2813 4.0569V2.44194Z" fill="#5F6A7F"/>
<path d="M15.4898 2.44194C15.4898 2.09296 15.2069 1.81006 14.858 1.81006C14.509 1.81006 14.2261 2.09296 14.2261 2.44194V4.0569C14.2261 4.40588 14.509 4.68878 14.858 4.68878C15.2069 4.68878 15.4898 4.40588 15.4898 4.0569V2.44194Z" fill="#5F6A7F"/>
<path d="M5.86435 2.06432C5.86435 1.71534 5.58145 1.43243 5.23247 1.43243C4.88349 1.43243 4.60059 1.71534 4.60059 2.06432V3.67927C4.60059 4.02825 4.88349 4.31116 5.23247 4.31116C5.58145 4.31116 5.86435 4.02825 5.86435 3.67927V2.06432Z" fill="#272B3F"/>
<path d="M9.07285 2.06432C9.07285 1.71534 8.78994 1.43243 8.44096 1.43243C8.09198 1.43243 7.80908 1.71534 7.80908 2.06432V3.67927C7.80908 4.02825 8.09198 4.31116 8.44096 4.31116C8.78994 4.31116 9.07285 4.02825 9.07285 3.67927V2.06432Z" fill="#272B3F"/>
<path d="M12.2813 2.06432C12.2813 1.71534 11.9984 1.43243 11.6495 1.43243C11.3005 1.43243 11.0176 1.71534 11.0176 2.06432V3.67927C11.0176 4.02825 11.3005 4.31116 11.6495 4.31116C11.9984 4.31116 12.2813 4.02825 12.2813 3.67927V2.06432Z" fill="#272B3F"/>
<path d="M15.4898 2.06432C15.4898 1.71534 15.2069 1.43243 14.858 1.43243C14.509 1.43243 14.2261 1.71534 14.2261 2.06432V3.67927C14.2261 4.02825 14.509 4.31116 14.858 4.31116C15.2069 4.31116 15.4898 4.02825 15.4898 3.67927V2.06432Z" fill="#272B3F"/>
<path d="M7.97283 13.2331C7.82179 13.2331 7.68962 13.1789 7.57633 13.0694C7.46305 12.9599 7.4064 12.834 7.4064 12.6918V9.35616C7.4064 9.2391 7.35606 9.20889 7.25536 9.26805L7.02878 9.39392C6.9948 9.41029 6.96081 9.42162 6.92809 9.42539C6.8941 9.42917 6.86137 9.43169 6.82739 9.43169C6.66753 9.43169 6.53788 9.37882 6.43718 9.27435C6.33648 9.16987 6.28613 9.0377 6.28613 8.87784C6.28613 8.66008 6.40319 8.50022 6.63858 8.39953L7.6078 8.00932C7.71731 7.96778 7.81297 7.94638 7.89731 7.94638C8.08989 7.94638 8.24724 8.00554 8.36933 8.1226C8.49143 8.23966 8.55185 8.39575 8.55185 8.58833L8.53926 12.717C8.53926 12.868 8.4864 12.9914 8.38192 13.0883C8.27745 13.1852 8.14024 13.2331 7.97283 13.2331Z" fill="#EA4E60"/>
<path d="M9.93652 10.552C9.93652 9.73001 10.0939 9.08931 10.4085 8.63239C10.7232 8.17547 11.1915 7.94638 11.812 7.94638C12.4326 7.94638 12.9159 8.17547 13.2344 8.63239C13.5529 9.08931 13.7127 9.72497 13.7127 10.5394C13.7127 11.3538 13.5529 12.0058 13.2344 12.4967C12.9159 12.9876 12.4414 13.2331 11.812 13.2331C11.1827 13.2331 10.7232 12.9939 10.4085 12.5156C10.0939 12.0373 9.93652 11.3827 9.93652 10.552ZM11.0442 10.552C11.0442 11.097 11.1009 11.5061 11.2141 11.7792C11.3274 12.0524 11.5263 12.1883 11.812 12.1883C12.0978 12.1883 12.3105 12.0461 12.4288 11.7603C12.5459 11.4746 12.605 11.0643 12.605 10.5268C12.605 9.9893 12.5484 9.60161 12.4351 9.36245C12.3218 9.1233 12.1179 9.00372 11.8246 9.00372C11.5313 9.00372 11.3375 9.12582 11.2204 9.36875C11.1034 9.61169 11.0442 10.0069 11.0442 10.552Z" fill="#EA4E60"/>
<defs>
<linearGradient id="paint0_linear_87_7945" x1="9.99929" y1="2.81705" x2="9.99929" y2="16.2502" gradientUnits="userSpaceOnUse">
<stop stop-color="#F0F0F9"/>
<stop offset="1" stop-color="#CBC9E6"/>
</linearGradient>
</defs>
</svg>
