<svg width="20" height="20" viewBox="0 0 20 20" fill="none" xmlns="http://www.w3.org/2000/svg">
<path d="M9.99941 18.9578C14.947 18.9578 18.9578 14.947 18.9578 9.99938C18.9578 5.0518 14.947 1.04099 9.99941 1.04099C5.05183 1.04099 1.04102 5.0518 1.04102 9.99938C1.04102 14.947 5.05183 18.9578 9.99941 18.9578Z" fill="#272B3F"/>
<path d="M9.99944 17.407C14.0906 17.407 17.4071 14.0905 17.4071 9.99938C17.4071 5.90825 14.0906 2.59174 9.99944 2.59174C5.90831 2.59174 2.5918 5.90825 2.5918 9.99938C2.5918 14.0905 5.90831 17.407 9.99944 17.407Z" fill="url(#paint0_linear_87_7949)"/>
<path d="M4.68384 10.1253H3.90468C3.83545 10.1253 3.77881 10.0686 3.77881 9.99938C3.77881 9.93015 3.83545 9.8735 3.90468 9.8735H4.68384C4.75307 9.8735 4.80971 9.93015 4.80971 9.99938C4.80971 10.0686 4.75307 10.1253 4.68384 10.1253Z" fill="#272B3F"/>
<path d="M16.0942 10.1253H15.3151C15.2459 10.1253 15.1892 10.0686 15.1892 9.99938C15.1892 9.93015 15.2459 9.8735 15.3151 9.8735H16.0942C16.1635 9.8735 16.2201 9.93015 16.2201 9.99938C16.2201 10.0686 16.1635 10.1253 16.0942 10.1253Z" fill="#272B3F"/>
<path d="M9.99941 4.80962C9.93018 4.80962 9.87354 4.75297 9.87354 4.68374V3.90459C9.87354 3.83536 9.93018 3.77872 9.99941 3.77872C10.0686 3.77872 10.1253 3.83536 10.1253 3.90459V4.68374C10.1253 4.75297 10.0686 4.80962 9.99941 4.80962Z" fill="#272B3F"/>
<path d="M9.99941 16.2213C9.93018 16.2213 9.87354 16.1646 9.87354 16.0954V15.3162C9.87354 15.247 9.93018 15.1904 9.99941 15.1904C10.0686 15.1904 10.1253 15.247 10.1253 15.3162V16.0954C10.1253 16.1646 10.0686 16.2213 9.99941 16.2213Z" fill="#272B3F"/>
<path d="M9.9881 10.377C9.89621 10.377 9.80307 10.343 9.73006 10.275L5.69582 6.51141C5.54351 6.36918 5.5347 6.13002 5.67694 5.97771C5.81918 5.82541 6.05834 5.81659 6.21064 5.95883L10.2449 9.72244C10.3972 9.86468 10.406 10.1038 10.2638 10.2561C10.1895 10.3354 10.0888 10.3757 9.9881 10.3757V10.377Z" fill="#272B3F"/>
<path d="M9.9993 12.8026C9.79161 12.8026 9.62294 12.6351 9.62168 12.4262L9.61035 10.0019C9.61035 9.79293 9.77776 9.623 9.98671 9.623C10.1982 9.61671 10.3656 9.79041 10.3656 9.99936L10.3769 12.4237C10.3769 12.6326 10.2095 12.8026 10.0006 12.8026H9.9993Z" fill="#272B3F"/>
<path d="M9.99934 10.9472C10.5228 10.9472 10.9472 10.5228 10.9472 9.99937C10.9472 9.4759 10.5228 9.05154 9.99934 9.05154C9.47587 9.05154 9.05151 9.4759 9.05151 9.99937C9.05151 10.5228 9.47587 10.9472 9.99934 10.9472Z" fill="#EA4E60"/>
<defs>
<linearGradient id="paint0_linear_87_7949" x1="9.99944" y1="15.8462" x2="9.99944" y2="2.91145" gradientUnits="userSpaceOnUse">
<stop stop-color="#F0F0F9"/>
<stop offset="1" stop-color="#CBC9E6"/>
</linearGradient>
</defs>
</svg>
