<svg width="20" height="20" viewBox="0 0 20 20" fill="none" xmlns="http://www.w3.org/2000/svg">
<g clip-path="url(#clip0_87_7964)">
<path d="M9.99945 18.2881C14.5772 18.2881 18.2882 14.5771 18.2882 9.99939C18.2882 5.42163 14.5772 1.71063 9.99945 1.71063C5.4217 1.71063 1.71069 5.42163 1.71069 9.99939C1.71069 14.5771 5.4217 18.2881 9.99945 18.2881Z" fill="url(#paint0_linear_87_7964)"/>
<path d="M5.52965 10.6161C5.93772 10.6161 6.26852 10.2853 6.26852 9.87727C6.26852 9.4692 5.93772 9.1384 5.52965 9.1384C5.12158 9.1384 4.79077 9.4692 4.79077 9.87727C4.79077 10.2853 5.12158 10.6161 5.52965 10.6161Z" fill="#231E1C"/>
<path d="M14.4703 10.6161C14.8784 10.6161 15.2092 10.2853 15.2092 9.87727C15.2092 9.4692 14.8784 9.1384 14.4703 9.1384C14.0623 9.1384 13.7314 9.4692 13.7314 9.87727C13.7314 10.2853 14.0623 10.6161 14.4703 10.6161Z" fill="#231E1C"/>
<path d="M12.4213 13.0833C12.308 13.0833 12.206 13.0077 12.1758 12.8932C11.914 11.8912 11.0052 11.1687 10.0032 11.1876C9.99317 11.1876 9.98436 11.1876 9.97429 11.1876C8.98115 11.1876 8.08367 11.9001 7.82437 12.8932C7.78913 13.0291 7.65067 13.1097 7.51472 13.0745C7.37878 13.0392 7.29822 12.9007 7.33347 12.7648C7.65318 11.5401 8.78227 10.6627 10.0045 10.6803C10.0158 10.6803 10.0284 10.6803 10.0397 10.6803C11.2469 10.6803 12.3508 11.5514 12.668 12.7648C12.7032 12.9007 12.6227 13.0392 12.4867 13.0745C12.4653 13.0795 12.4439 13.0833 12.4225 13.0833H12.4213Z" fill="#231E1C"/>
<path d="M3.91098 9.01377C3.83042 9.01377 3.74986 8.97475 3.70077 8.903C3.62147 8.7872 3.65168 8.62986 3.76748 8.55056L6.2497 6.85882C6.36551 6.77952 6.52411 6.80973 6.60215 6.92553C6.68145 7.04134 6.65124 7.19868 6.53544 7.27798L4.05322 8.96972C4.00916 8.99993 3.96007 9.01377 3.91098 9.01377Z" fill="#231E1C"/>
<path d="M16.0892 9.01377C16.0401 9.01377 15.9898 8.99993 15.947 8.96972L13.4647 7.27798C13.3489 7.19868 13.3187 7.04134 13.398 6.92553C13.4773 6.80973 13.6347 6.77952 13.7505 6.85882L16.2327 8.55056C16.3485 8.62986 16.3787 8.7872 16.2994 8.903C16.2503 8.97475 16.171 9.01377 16.0892 9.01377Z" fill="#231E1C"/>
<path d="M6.03188 13.2293C6.03188 13.88 5.50448 14.4074 4.85371 14.4074C4.20295 14.4074 3.67554 13.88 3.67554 13.2293C3.67554 12.5785 4.85371 11.2052 4.85371 11.2052C4.85371 11.2052 6.03188 12.5785 6.03188 13.2293Z" fill="#B9E2F8"/>
</g>
<defs>
<linearGradient id="paint0_linear_87_7964" x1="9.99945" y1="17.4863" x2="9.99945" y2="2.66601" gradientUnits="userSpaceOnUse">
<stop stop-color="#F4A932"/>
<stop offset="1" stop-color="#FADB65"/>
</linearGradient>
<clipPath id="clip0_87_7964">
<rect width="20" height="20" fill="white"/>
</clipPath>
</defs>
</svg>
