<svg width="20" height="20" viewBox="0 0 20 20" fill="none" xmlns="http://www.w3.org/2000/svg">
<path d="M17.6123 17.4763H12.4112C11.948 17.4763 11.5603 17.1226 11.5187 16.6619L10.2965 3.28657C10.2487 2.76168 10.6615 2.30853 11.1889 2.30853H18.8345C19.3619 2.30853 19.7748 2.76168 19.7269 3.28657L18.5047 16.6619C18.4619 17.1238 18.0755 17.4763 17.6123 17.4763Z" fill="#CCEAF9"/>
<path d="M17.4915 16.7802H12.5396C12.23 16.7802 11.9719 16.5448 11.943 16.2364L11.1374 7.424C11.1009 7.02876 11.4533 6.70527 11.8435 6.78205C12.4981 6.91044 13.5579 6.95827 15.0143 6.52527C16.74 6.01045 17.9106 6.17408 18.5072 6.34527C18.7817 6.42331 18.9579 6.6889 18.9314 6.97338L18.0856 16.2376C18.0579 16.546 17.7986 16.7814 17.4889 16.7814L17.4915 16.7802Z" fill="url(#paint0_linear_87_7953)"/>
<path d="M9.64052 5.87451C9.02374 5.87451 8.52025 5.97143 8.11494 6.1099C7.17844 6.43213 6.15509 6.43213 5.21859 6.1099C4.81328 5.97018 4.30979 5.87451 3.69301 5.87451C1.46128 5.87451 -0.728916 8.48261 0.758905 12.7271C2.16994 16.7512 4.03287 17.6927 5.09524 17.6927C5.36083 17.6927 5.59118 17.6688 5.7888 17.6336C6.3716 17.5291 6.96446 17.5291 7.54725 17.6336C7.74487 17.6688 7.97522 17.6927 8.24081 17.6927C9.30318 17.6927 11.1661 16.9753 12.5771 12.7271C13.9945 8.45869 11.8748 5.87451 9.64304 5.87451H9.64052Z" fill="url(#paint1_linear_87_7953)"/>
<path d="M6.44964 4.17397C6.47355 4.43326 5.8467 5.78388 4.54518 5.90346C3.24365 6.02304 2.04785 4.57676 2.04785 4.57676C2.04785 4.57676 3.05484 2.92908 4.26196 2.81957C5.46909 2.7088 6.42446 3.91593 6.44838 4.17397H6.44964Z" fill="url(#paint2_linear_87_7953)"/>
<path d="M6.77449 7.66946C6.70525 7.66946 6.63854 7.6317 6.60582 7.56625C6.13505 6.63856 6.05449 5.58248 6.37924 4.59438C6.70274 3.60627 7.39252 2.80194 8.32021 2.33244C8.41335 2.2846 8.52664 2.32237 8.57447 2.41551C8.6223 2.50866 8.58454 2.62194 8.49139 2.66978C7.65308 3.09397 7.03127 3.82026 6.73798 4.7127C6.44595 5.60514 6.5177 6.55926 6.94315 7.39632C6.99099 7.48946 6.95322 7.60275 6.86008 7.65058C6.83239 7.66443 6.80344 7.67072 6.77449 7.67072V7.66946Z" fill="#231E1C"/>
<path d="M6.45856 4.56415C6.42961 4.56415 6.3994 4.55786 6.37171 4.54276C6.35786 4.5352 4.95312 3.8278 3.57732 4.54276C3.48543 4.59059 3.37089 4.55534 3.32306 4.4622C3.27522 4.37031 3.31047 4.25576 3.40362 4.20793C4.95689 3.40108 6.48122 4.17521 6.54541 4.20793C6.63856 4.25576 6.6738 4.37031 6.62597 4.4622C6.59199 4.52639 6.52653 4.56415 6.45856 4.56415Z" fill="#231E1C"/>
<defs>
<linearGradient id="paint0_linear_87_7953" x1="13.1967" y1="12.6414" x2="20.2556" y2="8.324" gradientUnits="userSpaceOnUse">
<stop stop-color="#EF773F"/>
<stop offset="0.41" stop-color="#F7A418"/>
</linearGradient>
<linearGradient id="paint1_linear_87_7953" x1="6.65103" y1="17.2207" x2="6.65103" y2="5.82164" gradientUnits="userSpaceOnUse">
<stop stop-color="#E4003C"/>
<stop offset="1" stop-color="#EA4E55"/>
</linearGradient>
<linearGradient id="paint2_linear_87_7953" x1="2.04911" y1="4.36026" x2="6.4509" y2="4.36026" gradientUnits="userSpaceOnUse">
<stop stop-color="#95C11F"/>
<stop offset="1" stop-color="#3AAA35"/>
</linearGradient>
</defs>
</svg>
