<svg width="20" height="20" viewBox="0 0 20 20" fill="none" xmlns="http://www.w3.org/2000/svg">
<g clip-path="url(#clip0_28_28401)">
<path d="M17.1273 7.89414C16.2845 7.42971 15.2449 7.67371 14.6873 8.42459L13.3129 3.68476C13.0205 2.67574 11.9655 2.09578 10.9565 2.38812C9.94747 2.68045 9.36752 3.73545 9.65985 4.74447L10.5557 7.83402L10.4897 7.85288L9.16241 3.27337C8.87008 2.26435 7.81508 1.68439 6.80606 1.97673C5.79703 2.26906 5.21708 3.32406 5.50941 4.33308L6.8367 8.9126L6.77069 8.93146L5.87483 5.84191C5.58249 4.83288 4.5275 4.25293 3.51847 4.54526C2.50945 4.8376 1.92949 5.89259 2.22183 6.90162L4.4721 14.6662C4.49803 14.7557 4.53221 14.8406 4.56875 14.9231C5.63082 17.6991 8.66026 19.2433 11.5659 18.4017C13.2386 17.9172 14.5223 16.7408 15.2001 15.2744C15.2696 15.1884 15.3344 15.0952 15.3898 14.995L17.8759 10.4804C18.3827 9.56092 18.0468 8.40337 17.1273 7.89768V7.89414Z" fill="url(#paint0_linear_28_28401)"/>
<path d="M7.11836 10.0619C7.04174 10.0619 6.97101 10.0112 6.94862 9.93459L5.77103 5.87138C5.74391 5.77708 5.79814 5.67924 5.89126 5.65213C5.98438 5.62502 6.0834 5.67924 6.11051 5.77236L7.2881 9.83558C7.31521 9.92988 7.26099 10.0277 7.16787 10.0548C7.15136 10.0595 7.13486 10.0619 7.11836 10.0619Z" fill="#231E1C"/>
<path d="M10.8374 8.98449C10.7607 8.98449 10.69 8.9338 10.6676 8.85719L9.49002 4.79397C9.46291 4.69967 9.51713 4.60183 9.61026 4.57472C9.70338 4.54761 9.80239 4.60183 9.82951 4.69496L11.0071 8.75817C11.0342 8.85247 10.98 8.95031 10.8869 8.97742C10.8704 8.98214 10.8539 8.98449 10.8374 8.98449Z" fill="#231E1C"/>
<path d="M9.31199 15.6504C9.23537 15.6504 9.16465 15.5998 9.14225 15.5231C8.58234 13.5911 9.69863 11.5648 11.6295 11.0049L13.2444 10.5369L14.4007 8.53775C14.4502 8.45288 14.5575 8.42459 14.6424 8.47292C14.7273 8.52125 14.7555 8.6297 14.7072 8.71457L13.5155 10.7751C13.4931 10.814 13.4554 10.8434 13.4117 10.8564L11.7285 11.3444C9.98389 11.8501 8.97605 13.6807 9.48174 15.4253C9.50885 15.5196 9.45463 15.6174 9.3615 15.6445C9.345 15.6493 9.3285 15.6516 9.31199 15.6516V15.6504Z" fill="#231E1C"/>
<path d="M5.24757 11.4776C5.20749 11.4776 5.16741 11.4646 5.13441 11.4363C5.05896 11.3739 5.04953 11.2619 5.11201 11.1876C5.62241 10.5758 6.29785 10.1338 7.06641 9.911L10.8408 8.81711C10.9339 8.79 11.033 8.84422 11.0601 8.93734C11.0872 9.03164 11.033 9.12948 10.9398 9.15659L7.16542 10.2505C6.46523 10.4532 5.84992 10.8552 5.3843 11.4139C5.34894 11.4564 5.29943 11.4776 5.24875 11.4776H5.24757Z" fill="#231E1C"/>
<path d="M0.448849 7.69729C0.288537 7.69729 0.143549 7.58766 0.104649 7.42382C-0.306741 5.66981 0.524291 3.8215 2.07909 3.02819C2.25354 2.93978 2.46572 3.00815 2.55531 3.18261C2.64372 3.35707 2.57535 3.56924 2.40089 3.65883C1.13136 4.30597 0.455922 5.82187 0.79305 7.2635C0.837843 7.45329 0.719966 7.64425 0.529006 7.68904C0.501894 7.69493 0.474782 7.69847 0.447671 7.69847L0.448849 7.69729Z" fill="#231E1C" fill-opacity="0.4"/>
<path d="M17.6294 6.31785C17.7427 6.20449 17.9228 6.17949 18.0662 6.26784C19.5957 7.21721 20.3158 9.11263 19.7774 10.773C19.7173 10.958 19.5181 11.0605 19.3314 11.0005C19.1456 10.9397 19.0439 10.7413 19.1039 10.5546C19.544 9.19931 18.9505 7.64897 17.6919 6.8688C17.526 6.76628 17.4744 6.5479 17.5777 6.3812C17.5927 6.35786 17.6094 6.33619 17.6286 6.31702L17.6294 6.31785Z" fill="#231E1C" fill-opacity="0.4"/>
</g>
<defs>
<linearGradient id="paint0_linear_28_28401" x1="13.3445" y1="18.3212" x2="8.45703" y2="0.647066" gradientUnits="userSpaceOnUse">
<stop stop-color="#F4A932"/>
<stop offset="1" stop-color="#FADB65"/>
</linearGradient>
<clipPath id="clip0_28_28401">
<rect width="20" height="20" fill="white"/>
</clipPath>
</defs>
</svg>
