<svg width="20" height="20" viewBox="0 0 20 20" fill="none" xmlns="http://www.w3.org/2000/svg">
<path d="M18.6029 15.9054C18.4745 15.9054 18.3511 15.928 18.2366 15.967C18.2366 15.962 18.2366 15.957 18.2366 15.9507C18.2366 15.3276 17.7318 14.8228 17.1088 14.8228C16.4857 14.8228 15.9809 15.3276 15.9809 15.9507C15.9809 15.9557 15.9809 15.9607 15.9809 15.967C15.8664 15.928 15.743 15.9054 15.6146 15.9054C14.9916 15.9054 14.4868 16.4101 14.4868 17.0332C14.4868 17.6563 14.9916 18.161 15.6146 18.161H18.6029C19.2259 18.161 19.7307 17.6563 19.7307 17.0332C19.7307 16.4101 19.2259 15.9054 18.6029 15.9054Z" fill="#2FAC66"/>
<path d="M9.65327 3.23999L2.19653 9.35869H2.24437L2.74156 18.1459H16.5637L17.0609 9.35869H17.1087L9.65327 3.23999Z" fill="url(#paint0_linear_87_7939)"/>
<path d="M9.65329 4.20919L16.9174 10.4814C16.9703 10.528 17.0395 10.5532 17.11 10.5532H18.2278C18.4997 10.5532 18.6255 10.2146 18.4204 10.0371L9.65454 2.4671L0.888732 10.0371C0.6823 10.2146 0.808173 10.5532 1.08132 10.5532H2.19907C2.26956 10.5532 2.33753 10.528 2.39166 10.4814L9.6558 4.20919H9.65329Z" fill="#F4A285"/>
<path d="M9.90364 3.91213L17.7946 10.7269C17.9306 10.844 18.1043 10.9094 18.2843 10.9094C18.9791 10.9094 19.3001 10.0459 18.7739 9.59279L9.90239 1.93214C9.75763 1.80753 9.54491 1.80753 9.40015 1.93214L0.528607 9.59279C0.00245658 10.0472 0.323433 10.9094 1.01825 10.9094C1.19825 10.9094 1.37196 10.8452 1.5079 10.7269L9.39889 3.91213C9.54365 3.78751 9.75637 3.78751 9.90113 3.91213H9.90364Z" fill="#EA4E60"/>
<path d="M11.0755 10.6929H14.4427C14.6806 10.6929 14.8744 10.8868 14.8744 11.1247V18.1459H10.6438V11.1247C10.6438 10.8868 10.8376 10.6929 11.0755 10.6929Z" fill="#F4A285"/>
<path d="M11.2179 11.1008H14.3018C14.429 11.1008 14.5322 11.204 14.5322 11.3311V18.1446H10.9863V11.3311C10.9863 11.204 11.0895 11.1008 11.2167 11.1008H11.2179Z" fill="#965E4E"/>
<path d="M8.62347 10.6929H4.58043C4.34198 10.6929 4.14868 10.8862 4.14868 11.1247V15.1979C4.14868 15.4364 4.34198 15.6297 4.58043 15.6297H8.62347C8.86192 15.6297 9.05522 15.4364 9.05522 15.1979V11.1247C9.05522 10.8862 8.86192 10.6929 8.62347 10.6929Z" fill="#F4A285"/>
<path d="M8.5115 11.1008H4.69251C4.56529 11.1008 4.46216 11.2039 4.46216 11.3311V14.9915C4.46216 15.1187 4.56529 15.2219 4.69251 15.2219H8.5115C8.63872 15.2219 8.74185 15.1187 8.74185 14.9915V11.3311C8.74185 11.2039 8.63872 11.1008 8.5115 11.1008Z" fill="#BCE3F6"/>
<path d="M6.44589 11.2342L4.60059 13.0795V14.9802L8.34783 11.2342H6.44589Z" fill="white"/>
<path d="M8.60349 11.574L5.08911 15.0884H6.03945L8.60349 12.5244V11.574Z" fill="white"/>
<path d="M11.8069 14.9827C11.9821 14.9827 12.1241 14.8407 12.1241 14.6655C12.1241 14.4903 11.9821 14.3483 11.8069 14.3483C11.6318 14.3483 11.4897 14.4903 11.4897 14.6655C11.4897 14.8407 11.6318 14.9827 11.8069 14.9827Z" fill="#E8B86B"/>
<path d="M8.49771 13.2721H4.6976C4.59312 13.2721 4.50879 13.1878 4.50879 13.0833C4.50879 12.9788 4.59312 12.8945 4.6976 12.8945H8.49771C8.60219 12.8945 8.68652 12.9788 8.68652 13.0833C8.68652 13.1878 8.60219 13.2721 8.49771 13.2721Z" fill="#965E4F"/>
<path d="M6.59823 15.1803C6.49376 15.1803 6.40942 15.096 6.40942 14.9915V11.3311C6.40942 11.2266 6.49376 11.1423 6.59823 11.1423C6.70271 11.1423 6.78704 11.2266 6.78704 11.3311V14.9915C6.78704 15.096 6.70271 15.1803 6.59823 15.1803Z" fill="#965E4F"/>
<path d="M4.41195 15.9054C4.28356 15.9054 4.16021 15.928 4.04566 15.967C4.04566 15.962 4.04566 15.957 4.04566 15.9507C4.04566 15.3276 3.54091 14.8228 2.91784 14.8228C2.29476 14.8228 1.79001 15.3276 1.79001 15.9507C1.79001 15.9557 1.79001 15.9607 1.79001 15.967C1.67547 15.928 1.55211 15.9054 1.42372 15.9054C0.800649 15.9054 0.295898 16.4101 0.295898 17.0332C0.295898 17.6563 0.800649 18.161 1.42372 18.161H4.41195C5.03503 18.161 5.53978 17.6563 5.53978 17.0332C5.53978 16.4101 5.03503 15.9054 4.41195 15.9054Z" fill="#2FAC66"/>
<defs>
<linearGradient id="paint0_linear_87_7939" x1="9.65326" y1="17.8262" x2="9.65326" y2="8.25856" gradientUnits="userSpaceOnUse">
<stop stop-color="#FDE5D9"/>
<stop offset="1" stop-color="#FCD4B6"/>
</linearGradient>
</defs>
</svg>
