<svg width="20" height="20" viewBox="0 0 20 20" fill="none" xmlns="http://www.w3.org/2000/svg">
<path d="M3.81152 3.53073V15.2281C3.81152 16.3522 6.58199 17.2648 9.99945 17.2648C13.4169 17.2648 16.1874 16.3534 16.1874 15.2281V3.53073H3.81152Z" fill="url(#paint0_linear_87_7941)"/>
<path d="M9.99945 5.56737C13.417 5.56737 16.1874 4.65554 16.1874 3.53074C16.1874 2.40594 13.417 1.49411 9.99945 1.49411C6.58195 1.49411 3.81152 2.40594 3.81152 3.53074C3.81152 4.65554 6.58195 5.56737 9.99945 5.56737Z" fill="url(#paint1_linear_87_7941)"/>
<path d="M9.99932 4.19284C11.1116 4.19284 12.0133 3.89641 12.0133 3.53074C12.0133 3.16508 11.1116 2.86865 9.99932 2.86865C8.88704 2.86865 7.98535 3.16508 7.98535 3.53074C7.98535 3.89641 8.88704 4.19284 9.99932 4.19284Z" fill="#73728E"/>
<path d="M10.8213 9.71866V18.5046C13.8498 18.3724 16.1873 16.2616 16.1873 15.2281V3.53073C16.1873 4.2973 14.8996 5.65799 12.9976 6.36288L10.8213 9.71866Z" fill="url(#paint2_linear_87_7941)"/>
<path d="M13.4811 8.52792L10.8252 9.71994L12.9952 6.36038C13.0431 7.06401 13.1929 7.80163 13.4811 8.52792Z" fill="white"/>
<defs>
<linearGradient id="paint0_linear_87_7941" x1="9.99945" y1="0.775365" x2="9.99945" y2="16.5926" gradientUnits="userSpaceOnUse">
<stop stop-color="#F0F0F9"/>
<stop offset="1" stop-color="#CBC9E6"/>
</linearGradient>
<linearGradient id="paint1_linear_87_7941" x1="9.99945" y1="-2.25817" x2="9.99945" y2="5.56863" gradientUnits="userSpaceOnUse">
<stop stop-color="#F0F0F9"/>
<stop offset="1" stop-color="#CBC9E6"/>
</linearGradient>
<linearGradient id="paint2_linear_87_7941" x1="19.8615" y1="11.0177" x2="9.86213" y2="11.0177" gradientUnits="userSpaceOnUse">
<stop stop-color="#F0F0F9"/>
<stop offset="1" stop-color="#CBC9E6"/>
</linearGradient>
</defs>
</svg>
