<svg width="20" height="20" viewBox="0 0 20 20" fill="none" xmlns="http://www.w3.org/2000/svg">
<path d="M10.0006 17.9734C14.4039 17.9734 17.9735 14.4039 17.9735 10.0006C17.9735 5.59735 14.4039 2.0278 10.0006 2.0278C5.59738 2.0278 2.02783 5.59735 2.02783 10.0006C2.02783 14.4039 5.59738 17.9734 10.0006 17.9734Z" fill="url(#paint0_radial_87_7931)"/>
<path d="M16.9149 12.4463C16.9061 10.5985 16.458 9.37378 16.3699 9.14972C16.7324 8.26106 16.8809 7.2654 16.9224 6.93687C17.0055 6.96456 17.1327 7.00988 17.2787 7.07282C17.2447 6.991 17.2082 6.91044 17.1717 6.83114C17.0471 6.78331 16.9501 6.75184 16.9023 6.73799C15.8576 5.17339 14.6303 4.27465 14.4591 4.15381C14.2942 3.81144 14.045 3.4955 13.7882 3.22739C13.6082 3.13046 13.4232 3.0411 13.2344 2.95928C13.5792 3.25508 14.0097 3.68556 14.2602 4.16766C13.2847 4.5629 12.5609 5.14821 12.3683 5.31311C11.1738 4.64975 9.13341 4.42192 8.77467 4.38542C8.40208 3.61634 7.85831 3.08137 7.63929 2.88501C7.77649 2.80193 8.04838 2.64837 8.42474 2.5011C8.09118 2.57662 7.76391 2.67103 7.44797 2.78809C7.44545 2.78935 7.44293 2.79061 7.44167 2.79187C7.16727 2.89886 6.89412 3.02096 6.62979 3.14683C5.67567 3.63144 4.83358 4.30738 4.1589 5.12556C3.81526 5.97142 3.79639 6.64862 3.7989 6.82736C3.6403 6.97463 2.96939 7.65561 2.46464 8.98986C2.41681 9.33727 2.39038 9.69098 2.39038 10.051C2.39038 11.5489 2.81709 12.9461 3.55345 14.1305C3.40744 13.7063 3.42254 13.228 3.44394 12.9876C3.69946 13.1626 4.32001 13.4961 5.34336 13.4961C5.51203 13.4961 5.69203 13.4861 5.8821 13.4659C5.96518 13.6019 6.20938 13.9933 6.56056 14.4389C6.95203 14.9374 7.55999 15.6045 8.24978 15.9985C8.16544 16.6971 8.22082 17.1691 8.25481 17.3604C8.1453 17.3768 7.93383 17.3995 7.64684 17.3831C8.04964 17.519 8.46628 17.6248 8.89551 17.694C8.74194 17.6185 8.58586 17.5203 8.44866 17.3869C8.426 17.2774 8.34166 16.794 8.43355 16.0274C8.76082 15.9607 10.2235 15.6221 11.5036 14.6718C11.705 14.8115 12.4225 15.2256 13.909 15.2256C14.0563 15.2256 14.2111 15.2218 14.3748 15.213C14.405 16.1458 14.0412 16.6367 14.0374 16.6417L13.9367 16.7726L13.9732 16.7764C15.5542 15.8726 16.7852 14.4288 17.4159 12.6956L16.9212 12.4489L16.9149 12.4463ZM5.86322 13.2834C4.31498 13.4483 3.52575 12.8277 3.44016 12.756C2.55527 11.3752 2.4294 9.87349 2.41807 9.71363C2.90394 7.99672 3.75359 7.12442 3.92226 6.96456C4.82225 7.08918 5.95007 7.13072 6.28112 7.14079C6.24462 7.58009 6.30378 8.9521 7.3523 10.5796C7.17104 10.8213 6.40196 11.8875 5.86322 13.2834ZM7.5172 10.494C6.38056 8.73812 6.45105 7.29435 6.46867 7.09044L8.75201 4.56668C9.07928 4.60066 11.1524 4.83353 12.3042 5.48555C12.5584 6.31002 13.2822 8.17169 13.4043 8.48259C12.4212 9.92258 11.194 10.9195 10.9699 11.0957C10.6854 11.0126 9.11579 10.5746 7.51846 10.494H7.5172ZM14.4302 15.0242C12.5924 15.1375 11.7553 14.6277 11.5905 14.5107C11.5867 14.2111 11.5426 12.4992 11.0958 11.2304C11.3601 11.0215 12.5672 10.0271 13.5428 8.60343C14.6429 8.95588 15.9331 9.18623 16.2037 9.2328C16.2981 9.47825 16.7261 10.6992 16.7311 12.4753C15.4334 14.3609 14.5585 14.9449 14.4302 15.0242Z" fill="#4A4A66"/>
<defs>
<radialGradient id="paint0_radial_87_7931" cx="0" cy="0" r="1" gradientUnits="userSpaceOnUse" gradientTransform="translate(16.6342 2.9001) scale(15.9305 15.9305)">
<stop stop-color="#F0F0F9"/>
<stop offset="1" stop-color="#CBC9E6"/>
</radialGradient>
</defs>
</svg>
