<svg width="20" height="20" viewBox="0 0 20 20" fill="none" xmlns="http://www.w3.org/2000/svg">
<path d="M7.58379 4.09465C8.61127 4.09465 9.4442 3.26172 9.4442 2.23425C9.4442 1.20677 8.61127 0.37384 7.58379 0.37384C6.55632 0.37384 5.72339 1.20677 5.72339 2.23425C5.72339 3.26172 6.55632 4.09465 7.58379 4.09465Z" fill="#2567FF"/>
<path d="M13.5642 8.60092L10.834 5.2036C10.469 4.7492 9.91767 4.48486 9.33362 4.48486H5.83183C5.25029 4.48486 4.70148 4.74794 4.33519 5.19982L1.605 8.57574C1.19465 9.08931 1.29787 9.84706 1.84542 10.2285C2.34514 10.5771 3.03618 10.4487 3.41632 9.97294L4.91295 8.09994V18.482C4.91295 19.1138 5.42525 19.6262 6.05714 19.6262C6.68902 19.6262 7.20133 19.1138 7.20133 18.482V12.5319H7.96915V18.482C7.96915 19.1138 8.48146 19.6262 9.11334 19.6262C9.74522 19.6262 10.2575 19.1138 10.2575 18.482V8.12638L11.7542 9.99937C12.1343 10.4752 12.8253 10.6036 13.3251 10.2549C13.8726 9.87224 13.9758 9.11448 13.5655 8.60218L13.5642 8.60092Z" fill="#2567FF"/>
<path d="M13.3643 10.4487C14.0838 10.4487 14.6671 9.86544 14.6671 9.14593C14.6671 8.42642 14.0838 7.84314 13.3643 7.84314C12.6448 7.84314 12.0615 8.42642 12.0615 9.14593C12.0615 9.86544 12.6448 10.4487 13.3643 10.4487Z" fill="#001D4A"/>
<path d="M17.5522 13.6056L15.6402 11.2254C15.3846 10.9069 14.9982 10.7219 14.5891 10.7219H12.1358C11.7293 10.7219 11.3441 10.9056 11.0873 11.2216L9.1753 13.5867C8.88831 13.9467 8.96006 14.4767 9.34397 14.7448C9.6939 14.989 10.1785 14.8996 10.4441 14.566L11.4926 13.2544V18.8243C11.4926 19.2661 11.8514 19.6249 12.2932 19.6249C12.735 19.6249 13.0937 19.2661 13.0937 18.8243V15.5076H13.6325V18.8243C13.6325 19.2661 13.9912 19.6249 14.433 19.6249C14.8748 19.6249 15.2336 19.2661 15.2336 18.8243V13.2721L16.2821 14.5837C16.549 14.9172 17.0323 15.0066 17.3822 14.7624C17.7661 14.4943 17.8379 13.9644 17.5509 13.6044L17.5522 13.6056Z" fill="#001D4A"/>
</svg>
