<svg width="20" height="20" viewBox="0 0 20 20" fill="none" xmlns="http://www.w3.org/2000/svg">
<path d="M16.0451 2.43817H3.95377C3.19978 2.43817 2.58301 3.05495 2.58301 3.80893V13.5842C2.58301 14.3382 3.19978 14.955 3.95377 14.955H7.92381V16.8758C7.92381 17.4246 8.49905 17.7506 8.9245 17.4423L12.3634 14.955H16.0451C16.7991 14.955 17.4159 14.3382 17.4159 13.5842V3.80893C17.4159 3.05495 16.7991 2.43817 16.0451 2.43817Z" fill="url(#paint0_linear_87_7937)"/>
<path d="M10.5103 9.52735C10.5103 9.71868 10.4512 9.87098 10.3341 9.98301C10.217 10.095 10.0572 10.1504 9.85452 10.1504C9.66319 10.1504 9.50333 10.095 9.37494 9.98301C9.24781 9.87098 9.18362 9.71993 9.18362 9.52735V9.22399C9.18362 8.90428 9.28431 8.64624 9.48697 8.44987C9.68963 8.25351 9.88599 8.08484 10.0773 7.94638C10.5141 7.61659 10.7319 7.28177 10.7319 6.94065C10.7319 6.72793 10.6626 6.57059 10.5242 6.46989C10.3857 6.36919 10.2044 6.31758 9.98165 6.31758C9.779 6.31758 9.6141 6.36289 9.48697 6.45352C9.35984 6.54415 9.28935 6.6801 9.27928 6.86009C9.26795 6.99855 9.1962 7.12569 9.06403 7.24401C8.93061 7.36107 8.77327 7.41897 8.59327 7.41897C8.41327 7.41897 8.25467 7.35226 8.12251 7.21883C7.98908 7.08541 7.92236 6.93939 7.92236 6.77953C7.92236 6.47114 8.01551 6.18919 8.2018 5.93367C8.38809 5.67814 8.63858 5.47549 8.95201 5.32696C9.26543 5.17843 9.6141 5.10291 9.99802 5.10291C10.5947 5.10291 11.0893 5.26276 11.4833 5.58248C11.8773 5.9022 12.0737 6.31758 12.0737 6.82863C12.0737 7.33967 11.978 7.70219 11.7867 7.94638C11.5953 8.19183 11.3663 8.40959 11.1007 8.60092C10.8879 8.74945 10.7356 8.87281 10.645 8.96847C10.5544 9.06413 10.5091 9.14973 10.5091 9.22399V9.52735H10.5103ZM10.032 12.2903C9.77648 12.2903 9.56124 12.211 9.38501 12.0511C9.20879 11.8912 9.12193 11.6999 9.12193 11.4759C9.12193 11.2518 9.21005 11.0391 9.38501 10.8692C9.55998 10.6992 9.77648 10.6136 10.032 10.6136C10.2661 10.6136 10.4663 10.6992 10.6312 10.8692C10.7961 11.0391 10.8791 11.2417 10.8791 11.4759C10.8791 11.71 10.7961 11.8912 10.6312 12.0511C10.4663 12.211 10.2661 12.2903 10.032 12.2903Z" fill="#416AB1"/>
<defs>
<linearGradient id="paint0_linear_87_7937" x1="9.99946" y1="2.56782" x2="9.99946" y2="13.2519" gradientUnits="userSpaceOnUse">
<stop stop-color="#CCEAF9"/>
<stop offset="1" stop-color="#B5D4E5"/>
</linearGradient>
</defs>
</svg>
