<svg width="20" height="20" viewBox="0 0 20 20" fill="none" xmlns="http://www.w3.org/2000/svg">
<path d="M19.1429 15.5642H0.732666V11.0039C0.732666 10.479 1.09393 10.0246 1.60497 9.90624L5.18984 9.07422H15.7456L18.3436 9.8647C18.8181 10.0095 19.1429 10.4475 19.1429 10.9434V15.5655V15.5642Z" fill="url(#paint0_linear_87_7943)"/>
<path d="M18.2907 15.5642H1.6364C1.13795 15.5642 0.733887 15.3314 0.733887 15.0444V14.5421C0.733887 14.2551 1.13795 14.0223 1.6364 14.0223H18.2907C18.7892 14.0223 19.1932 14.2551 19.1932 14.5421V15.0444C19.1932 15.3314 18.7892 15.5642 18.2907 15.5642Z" fill="#C71246"/>
<path d="M0.895077 13.7831H2.53394C2.76932 13.7831 2.96065 13.9744 2.96065 14.2098V15.5088C2.96065 15.7442 2.76932 15.9355 2.53394 15.9355H1.74723C0.918987 15.9355 0.246826 15.2634 0.246826 14.4351V14.4301C0.246826 14.0726 0.536337 13.7831 0.893817 13.7831H0.895077Z" fill="#252F47"/>
<path d="M18.5185 15.9343C18.4153 15.9343 18.3322 15.8512 18.3322 15.748V13.9694C18.3322 13.8662 18.4153 13.7831 18.5185 13.7831H19.2183C19.5116 13.7831 19.7495 14.021 19.7495 14.3143V14.7032C19.7495 15.383 19.1969 15.9355 18.5172 15.9355L18.5185 15.9343Z" fill="#252F47"/>
<path d="M15.0783 10.9887H5.85937C5.37854 10.9887 5.00846 10.5192 5.07518 9.99432L6.05951 3.89702C6.11363 3.46528 6.33895 2.77927 7.48691 2.77927H13.2305C14.9009 2.77927 14.965 3.41367 15.0192 3.84667L16.1722 9.99432C16.2389 10.5205 15.5579 10.9887 15.0783 10.9887Z" fill="url(#paint1_linear_87_7943)"/>
<path d="M7.94769 14.8581C7.94769 13.5532 6.88991 12.4955 5.58506 12.4955C4.28021 12.4955 3.22241 13.5532 3.22241 14.8581C3.22241 16.1629 4.28021 17.2207 5.58506 17.2207C6.88991 17.2207 7.94769 16.1629 7.94769 14.8581Z" fill="#272B3F"/>
<path d="M5.5862 13.6384H5.58495C4.91132 13.6384 4.36523 14.1845 4.36523 14.8581V14.8593C4.36523 15.533 4.91132 16.079 5.58495 16.079H5.5862C6.25983 16.079 6.80591 15.533 6.80591 14.8593V14.8581C6.80591 14.1845 6.25983 13.6384 5.5862 13.6384Z" fill="#C6CDE0"/>
<path d="M18.0956 14.8581C18.0956 13.5532 17.0379 12.4955 15.733 12.4955C14.4282 12.4955 13.3704 13.5532 13.3704 14.8581C13.3704 16.1629 14.4282 17.2207 15.733 17.2207C17.0379 17.2207 18.0956 16.1629 18.0956 14.8581Z" fill="#272B3F"/>
<path d="M15.7342 13.6384H15.7329C15.0593 13.6384 14.5132 14.1845 14.5132 14.8581V14.8593C14.5132 15.533 15.0593 16.079 15.7329 16.079H15.7342C16.4078 16.079 16.9539 15.533 16.9539 14.8593V14.8581C16.9539 14.1845 16.4078 13.6384 15.7342 13.6384Z" fill="#C6CDE0"/>
<path d="M8.99739 14.6428H8.39949C8.32145 14.6428 8.25599 14.5849 8.24592 14.5082C8.07222 13.1789 6.92803 12.177 5.58622 12.177C5.50062 12.177 5.4314 12.1078 5.4314 12.0222C5.4314 11.9366 5.50062 11.8673 5.58622 11.8673C7.0388 11.8673 8.28117 12.9184 8.53292 14.3332H8.99865C9.08424 14.3332 9.15347 14.4024 9.15347 14.488C9.15347 14.5736 9.08424 14.6428 8.99865 14.6428H8.99739Z" fill="#9C2243"/>
<path d="M13.0076 14.6453L12.4085 14.6428C12.3229 14.6428 12.2537 14.5723 12.2537 14.4867C12.2537 14.4012 12.3229 14.3319 12.4085 14.3319L12.8742 14.3344C13.097 13.0782 14.109 12.0851 15.3816 11.8975C15.4659 11.8849 15.5452 11.9441 15.5578 12.0284C15.5704 12.1128 15.5113 12.1921 15.4269 12.2047C14.2462 12.3784 13.3148 13.3262 13.1612 14.5107C13.1511 14.5874 13.0857 14.6453 13.0076 14.6453Z" fill="#9C2243"/>
<path d="M10.9622 14.6428C10.8766 14.6428 10.8074 14.5736 10.8074 14.488V3.21607C10.8074 3.13048 10.8766 3.06125 10.9622 3.06125C11.0478 3.06125 11.117 3.13048 11.117 3.21607V14.488C11.117 14.5736 11.0478 14.6428 10.9622 14.6428Z" fill="#9C2243"/>
<path d="M5.58501 12.1757C5.49941 12.1757 5.43018 12.1065 5.43018 12.0209V9.96162C5.43018 9.87602 5.49941 9.80679 5.58501 9.80679C5.6706 9.80679 5.73983 9.87602 5.73983 9.96162V12.0209C5.73983 12.1065 5.6706 12.1757 5.58501 12.1757Z" fill="#9C2243"/>
<path d="M15.4043 12.2072C15.3187 12.2072 15.2495 12.138 15.2495 12.0524V9.85966C15.2495 9.77406 15.3187 9.70483 15.4043 9.70483C15.4899 9.70483 15.5592 9.77406 15.5592 9.85966V12.0524C15.5592 12.138 15.4899 12.2072 15.4043 12.2072Z" fill="#9C2243"/>
<path d="M10.066 10.4399H9.41019C9.3246 10.4399 9.25537 10.3707 9.25537 10.2851C9.25537 10.1995 9.3246 10.1303 9.41019 10.1303H10.066C10.1516 10.1303 10.2208 10.1995 10.2208 10.2851C10.2208 10.3707 10.1516 10.4399 10.066 10.4399Z" fill="#9C2243"/>
<path d="M14.8341 10.4399H14.1783C14.0927 10.4399 14.0234 10.3707 14.0234 10.2851C14.0234 10.1995 14.0927 10.1303 14.1783 10.1303H14.8341C14.9197 10.1303 14.9889 10.1995 14.9889 10.2851C14.9889 10.3707 14.9197 10.4399 14.8341 10.4399Z" fill="#9C2243"/>
<path d="M0.940225 10.9912H2.66091C2.82706 10.9912 2.96049 11.1259 2.96049 11.2908C2.96049 11.7528 2.58539 12.1279 2.12344 12.1279H0.938965V10.9912H0.940225Z" fill="#FFFCEB"/>
<path d="M0.940186 12.3784H1.81501C2.03654 12.3784 2.21654 12.5584 2.21654 12.7799V12.8529C2.21654 13.0745 2.03654 13.2545 1.81501 13.2545H0.940186V12.3784Z" fill="#252F47"/>
<path d="M18.9363 12.9473H18.4202C18.0388 12.9473 17.7279 12.6377 17.7279 12.255V11.8497C17.7279 11.4683 18.0375 11.1574 18.4202 11.1574H18.9363V12.9473Z" fill="#F6B9D4"/>
<path d="M10.3065 3.60878C10.3065 3.39606 10.1341 3.22235 9.92007 3.22235H7.16344C6.8412 3.22235 6.56806 3.47032 6.524 3.80389L6.06708 8.78217C6.01296 9.18748 6.31505 9.54874 6.70652 9.54874H9.92132C10.134 9.54874 10.3078 9.3763 10.3078 9.16231V3.60752L10.3065 3.60878Z" fill="#272B3F"/>
<path d="M14.872 8.78217L14.4151 3.80389C14.371 3.47032 14.0979 3.22235 13.7756 3.22235H12.0046C11.7919 3.22235 11.6182 3.3948 11.6182 3.60878V9.16357C11.6182 9.37629 11.7906 9.55 12.0046 9.55H14.2325C14.6253 9.55 14.9261 9.18874 14.872 8.78343V8.78217Z" fill="#272B3F"/>
<path opacity="0.24" d="M10.3065 3.60878C10.3065 3.39606 10.1341 3.22235 9.92007 3.22235H9.7665L6.25338 6.73547L6.06583 8.78217C6.04569 8.937 6.07716 9.08553 6.14513 9.20888L10.3065 5.04751V3.60752V3.60878Z" fill="white"/>
<path opacity="0.24" d="M10.3064 5.70584L6.49878 9.51351C6.56297 9.53616 6.63347 9.54875 6.70521 9.54875H7.64549L10.3052 6.88905V5.70584H10.3064Z" fill="white"/>
<path opacity="0.24" d="M14.4138 3.8039C14.3886 3.62012 14.293 3.46404 14.1595 3.35831L11.6182 5.89969V8.26485L14.5548 5.32822L14.4151 3.80264L14.4138 3.8039Z" fill="white"/>
<path opacity="0.24" d="M14.609 5.93115L11.6169 8.92316V9.16232C11.6169 9.37505 11.7894 9.54875 12.0034 9.54875H12.1746L14.7084 7.01492L14.609 5.93115Z" fill="white"/>
<path d="M5.44896 8.88163H5.70826C5.88196 8.88163 6.02294 9.02261 6.02294 9.19631V9.70484C6.02294 9.84708 5.9084 9.96163 5.76616 9.96163C5.44896 9.96163 5.19092 9.70358 5.19092 9.38638V9.13715C5.19092 8.99492 5.30546 8.88037 5.4477 8.88037L5.44896 8.88163Z" fill="#272B3F"/>
<path d="M6.32146 7.54483C6.46999 7.54483 6.59083 7.66567 6.59083 7.8142V9.21769C6.59083 9.36622 6.46999 9.48705 6.32146 9.48705H5.643C5.39377 9.48705 5.19238 9.2844 5.19238 9.03643V8.67643C5.19238 8.0521 5.69839 7.54609 6.32272 7.54609L6.32146 7.54483Z" fill="#C71246"/>
<path d="M6.43723 14.8593C6.43723 14.3998 6.06473 14.0273 5.60521 14.0273C5.1457 14.0273 4.77319 14.3998 4.77319 14.8593C4.77319 15.3188 5.1457 15.6914 5.60521 15.6914C6.06473 15.6914 6.43723 15.3188 6.43723 14.8593Z" fill="#808FAF"/>
<path d="M16.5649 14.8593C16.5649 14.3998 16.1924 14.0273 15.7329 14.0273C15.2734 14.0273 14.9009 14.3998 14.9009 14.8593C14.9009 15.3188 15.2734 15.6914 15.7329 15.6914C16.1924 15.6914 16.5649 15.3188 16.5649 14.8593Z" fill="#808FAF"/>
<defs>
<linearGradient id="paint0_linear_87_7943" x1="9.93778" y1="15.8084" x2="9.93778" y2="6.0092" gradientUnits="userSpaceOnUse">
<stop stop-color="#E4003C"/>
<stop offset="1" stop-color="#EA4E55"/>
</linearGradient>
<linearGradient id="paint1_linear_87_7943" x1="10.6224" y1="14.9776" x2="10.6224" y2="6.38679" gradientUnits="userSpaceOnUse">
<stop stop-color="#E4003C"/>
<stop offset="1" stop-color="#EA4E55"/>
</linearGradient>
</defs>
</svg>
